# xmcd
#
# Track frame offsets: 
#        150
#        23922
#        38326
#        64077
#        88885
#        110749
#        126820
#        145246
#        175315
#        199889
#        232105
#        261803
#        275250
#        302689
#        322455
#
# Disc length: 4651 seconds
#
# Revision: 2
# Processed by: cddbd v1.5.2PL0 Copyright (c) Steve Scherf et al.
# Submitted via: ExactAudioCopy v1.0b3
#
DISCID=e012290f
DTITLE=Various Artist - Time Blues  vol.14
DYEAR=2008
DGENRE=Blues
TTITLE0=Eric King and This Line - Shall Of Men
TTITLE1=Nick Curran and The Nitelifes - Driving Me Crazy
TTITLE2=Blues on First - Forever Blues
TTITLE3=Mark Hodgson - Cath me when I fall
TTITLE4=The Nobby Reed Project - Blueday
TTITLE5=Jimmy Burns - Twelve Year Old Boy
TTITLE6=Mick Martin and The Blues Rochers - Playing with Fire
TTITLE7=Etta James - Ball and Chain
TTITLE8=Collin James - Why You Lie
TTITLE9=Lucky Peterson and Malvin Taylor - Dont anwer the Door
TTITLE10=Too Slim and The Taildraggers - My Load
TTITLE11=Trout Fishing in America - Breakfast Blues
TTITLE12=Kate Webster - Pussy Cat Moan
TTITLE13=Bennie Marsden - Brief Encounter
TTITLE14=Steve Johnson - Angry Man Blues
EXTD=YEAR: 2006
EXTT0=
EXTT1=
EXTT2=
EXTT3=
EXTT4=
EXTT5=
EXTT6=
EXTT7=
EXTT8=
EXTT9=
EXTT10=
EXTT11=
EXTT12=
EXTT13=
EXTT14=
PLAYORDER=
